<?xml version="1.0" encoding="UTF-8" standalone="no"?><!DOCTYPE svg PUBLIC "-//W3C//DTD SVG 1.1//EN" "http://www.w3.org/Graphics/SVG/1.1/DTD/svg11.dtd"><!-- Generated by graphviz version 2.40.1 (20161225.0304)
 --><!-- Title: G Pages: 1 --><svg xmlns="http://www.w3.org/2000/svg" xmlns:xlink="http://www.w3.org/1999/xlink" width="286pt" height="133pt" viewBox="0.00 0.00 285.86 132.80">
<g id="graph0" class="graph" transform="scale(1 1) rotate(0) translate(4 128.8)">
<title>G</title>
<polygon fill="#ffffff" stroke="transparent" points="-4,4 -4,-128.8 281.8561,-128.8 281.8561,4 -4,4"/>
<!-- 0 -->
<g id="node1" class="node">
<title>0</title>
<ellipse fill="none" stroke="#000000" cx="48.0371" cy="-106.8" rx="48.0742" ry="18"/>
<text text-anchor="middle" x="48.0371" y="-102.6" font-family="Times,serif" font-size="14.00" fill="#000000">Sequence</text>
</g>
<!-- 2 -->
<g id="node3" class="node">
<title>2</title>
<ellipse fill="none" stroke="#000000" cx="122.0371" cy="-18" rx="72.3497" ry="18"/>
<text text-anchor="middle" x="122.0371" y="-13.8" font-family="Times,serif" font-size="14.00" fill="#000000">SequenceTotals</text>
</g>
<!-- 0&#45;&gt;2 -->
<g id="edge1" class="edge">
<title>0-&gt;2</title>
<path fill="none" stroke="#000000" d="M62.6571,-89.256C73.5322,-76.2059 88.539,-58.1977 100.7451,-43.5503"/>
<polygon fill="#000000" stroke="#000000" points="103.4811,-45.7344 107.1942,-35.8115 98.1035,-41.2531 103.4811,-45.7344"/>
<text text-anchor="middle" x="109.5336" y="-58.2" font-family="Times,serif" font-size="14.00" fill="#000000">Totals</text>
</g>
<!-- 1 -->
<g id="node2" class="node">
<title>1</title>
<ellipse fill="none" stroke="#000000" cx="196.0371" cy="-106.8" rx="81.6384" ry="18"/>
<text text-anchor="middle" x="196.0371" y="-102.6" font-family="Times,serif" font-size="14.00" fill="#000000">EfficientSequence</text>
</g>
<!-- 1&#45;&gt;2 -->
<g id="edge2" class="edge">
<title>1-&gt;2</title>
<path fill="none" stroke="#000000" d="M181.0621,-88.83C170.2592,-75.8665 155.5177,-58.1768 143.4697,-43.7191"/>
<polygon fill="#000000" stroke="#000000" points="145.8279,-41.0818 136.7373,-35.6402 140.4504,-45.5631 145.8279,-41.0818"/>
<text text-anchor="middle" x="182.5336" y="-58.2" font-family="Times,serif" font-size="14.00" fill="#000000">Totals</text>
</g>
</g>
</svg>