<?xml version="1.0" encoding="UTF-8" standalone="no"?><!DOCTYPE svg PUBLIC "-//W3C//DTD SVG 1.1//EN" "http://www.w3.org/Graphics/SVG/1.1/DTD/svg11.dtd"><!-- Generated by graphviz version 2.40.1 (20161225.0304)
 --><!-- Title: G Pages: 1 --><svg xmlns="http://www.w3.org/2000/svg" xmlns:xlink="http://www.w3.org/1999/xlink" width="704pt" height="310pt" viewBox="0.00 0.00 704.46 310.40">
<g id="graph0" class="graph" transform="scale(1 1) rotate(0) translate(4 306.4)">
<title>G</title>
<polygon fill="#ffffff" stroke="transparent" points="-4,4 -4,-306.4 700.4557,-306.4 700.4557,4 -4,4"/>
<!-- 0 -->
<g id="node1" class="node">
<title>0</title>
<ellipse fill="none" stroke="#000000" cx="407.7204" cy="-195.6" rx="65.9716" ry="18"/>
<text text-anchor="middle" x="407.7204" y="-191.4" font-family="Times,serif" font-size="14.00" fill="#000000">NumberValue</text>
</g>
<!-- 6 -->
<g id="node7" class="node">
<title>6</title>
<ellipse fill="none" stroke="#000000" cx="258.7204" cy="-106.8" rx="65.9716" ry="18"/>
<text text-anchor="middle" x="258.7204" y="-102.6" font-family="Times,serif" font-size="14.00" fill="#000000">NumberValue</text>
</g>
<!-- 0&#45;&gt;6 -->
<g id="edge2" class="edge">
<title>0-&gt;6</title>
<path fill="none" stroke="#000000" d="M380.0438,-179.1055C356.1037,-164.8379 321.3154,-144.105 295.123,-128.495"/>
<polygon fill="#000000" stroke="#000000" points="296.6307,-125.3191 286.2487,-123.2062 293.047,-131.3323 296.6307,-125.3191"/>
<text text-anchor="middle" x="357.7737" y="-147" font-family="Times,serif" font-size="14.00" fill="#000000">Add</text>
</g>
<!-- 8 -->
<g id="node9" class="node">
<title>8</title>
<ellipse fill="none" stroke="#000000" cx="407.7204" cy="-106.8" rx="65.9716" ry="18"/>
<text text-anchor="middle" x="407.7204" y="-102.6" font-family="Times,serif" font-size="14.00" fill="#000000">NumberValue</text>
</g>
<!-- 0&#45;&gt;8 -->
<g id="edge6" class="edge">
<title>0-&gt;8</title>
<path fill="none" stroke="#000000" d="M407.7204,-177.2006C407.7204,-165.0949 407.7204,-149.0076 407.7204,-135.2674"/>
<polygon fill="#000000" stroke="#000000" points="411.2205,-134.872 407.7204,-124.872 404.2205,-134.8721 411.2205,-134.872"/>
<text text-anchor="middle" x="419.7737" y="-147" font-family="Times,serif" font-size="14.00" fill="#000000">Add</text>
</g>
<!-- 1 -->
<g id="node2" class="node">
<title>1</title>
<ellipse fill="none" stroke="#000000" cx="258.7204" cy="-195.6" rx="65.9716" ry="18"/>
<text text-anchor="middle" x="258.7204" y="-191.4" font-family="Times,serif" font-size="14.00" fill="#000000">NumberValue</text>
</g>
<!-- 1&#45;&gt;6 -->
<g id="edge3" class="edge">
<title>1-&gt;6</title>
<path fill="none" stroke="#000000" d="M258.7204,-177.2006C258.7204,-165.0949 258.7204,-149.0076 258.7204,-135.2674"/>
<polygon fill="#000000" stroke="#000000" points="262.2205,-134.872 258.7204,-124.872 255.2205,-134.8721 262.2205,-134.872"/>
<text text-anchor="middle" x="270.7737" y="-147" font-family="Times,serif" font-size="14.00" fill="#000000">Add</text>
</g>
<!-- 2 -->
<g id="node3" class="node">
<title>2</title>
<ellipse fill="none" stroke="#000000" cx="87.7204" cy="-195.6" rx="87.9413" ry="18"/>
<text text-anchor="middle" x="87.7204" y="-191.4" font-family="Times,serif" font-size="14.00" fill="#000000">OtherNumberValue</text>
</g>
<!-- 5 -->
<g id="node6" class="node">
<title>5</title>
<ellipse fill="none" stroke="#000000" cx="98.7204" cy="-106.8" rx="65.9716" ry="18"/>
<text text-anchor="middle" x="98.7204" y="-102.6" font-family="Times,serif" font-size="14.00" fill="#000000">NumberValue</text>
</g>
<!-- 2&#45;&gt;5 -->
<g id="edge1" class="edge">
<title>2-&gt;5</title>
<path fill="none" stroke="#000000" d="M89.9996,-177.2006C91.514,-164.975 93.5315,-148.6887 95.2445,-134.8599"/>
<polygon fill="#000000" stroke="#000000" points="98.7257,-135.2265 96.4817,-124.872 91.7788,-134.3659 98.7257,-135.2265"/>
<text text-anchor="middle" x="114.1566" y="-147" font-family="Times,serif" font-size="14.00" fill="#000000">Square</text>
</g>
<!-- 3 -->
<g id="node4" class="node">
<title>3</title>
<ellipse fill="none" stroke="#000000" cx="481.7204" cy="-284.4" rx="65.9716" ry="18"/>
<text text-anchor="middle" x="481.7204" y="-280.2" font-family="Times,serif" font-size="14.00" fill="#000000">NumberValue</text>
</g>
<!-- 7 -->
<g id="node8" class="node">
<title>7</title>
<ellipse fill="none" stroke="#000000" cx="556.7204" cy="-195.6" rx="65.9716" ry="18"/>
<text text-anchor="middle" x="556.7204" y="-191.4" font-family="Times,serif" font-size="14.00" fill="#000000">NumberValue</text>
</g>
<!-- 3&#45;&gt;7 -->
<g id="edge4" class="edge">
<title>3-&gt;7</title>
<path fill="none" stroke="#000000" d="M496.538,-266.856C507.56,-253.8059 522.7696,-235.7977 535.1407,-221.1503"/>
<polygon fill="#000000" stroke="#000000" points="537.8983,-223.3097 541.6769,-213.4115 532.5504,-218.7929 537.8983,-223.3097"/>
<text text-anchor="middle" x="550.2239" y="-235.8" font-family="Times,serif" font-size="14.00" fill="#000000">Multiply</text>
</g>
<!-- 4 -->
<g id="node5" class="node">
<title>4</title>
<ellipse fill="none" stroke="#000000" cx="630.7204" cy="-284.4" rx="65.9716" ry="18"/>
<text text-anchor="middle" x="630.7204" y="-280.2" font-family="Times,serif" font-size="14.00" fill="#000000">NumberValue</text>
</g>
<!-- 4&#45;&gt;7 -->
<g id="edge5" class="edge">
<title>4-&gt;7</title>
<path fill="none" stroke="#000000" d="M615.7454,-266.43C604.9424,-253.4665 590.201,-235.7768 578.1529,-221.3191"/>
<polygon fill="#000000" stroke="#000000" points="580.5112,-218.6818 571.4206,-213.2402 575.1337,-223.1631 580.5112,-218.6818"/>
<text text-anchor="middle" x="624.2239" y="-235.8" font-family="Times,serif" font-size="14.00" fill="#000000">Multiply</text>
</g>
<!-- 9 -->
<g id="node10" class="node">
<title>9</title>
<ellipse fill="none" stroke="#000000" cx="258.7204" cy="-18" rx="65.9716" ry="18"/>
<text text-anchor="middle" x="258.7204" y="-13.8" font-family="Times,serif" font-size="14.00" fill="#000000">NumberValue</text>
</g>
<!-- 5&#45;&gt;9 -->
<g id="edge8" class="edge">
<title>5-&gt;9</title>
<path fill="none" stroke="#000000" d="M128.0668,-90.5127C154.1167,-76.055 192.3394,-54.8415 220.7194,-39.0905"/>
<polygon fill="#000000" stroke="#000000" points="222.5148,-42.0971 229.56,-34.184 219.1178,-35.9765 222.5148,-42.0971"/>
<text text-anchor="middle" x="222.0949" y="-58.2" font-family="Times,serif" font-size="14.00" fill="#000000">AddThree</text>
</g>
<!-- 6&#45;&gt;9 -->
<g id="edge9" class="edge">
<title>6-&gt;9</title>
<path fill="none" stroke="#000000" d="M258.7204,-88.4006C258.7204,-76.2949 258.7204,-60.2076 258.7204,-46.4674"/>
<polygon fill="#000000" stroke="#000000" points="262.2205,-46.072 258.7204,-36.072 255.2205,-46.0721 262.2205,-46.072"/>
<text text-anchor="middle" x="287.0949" y="-58.2" font-family="Times,serif" font-size="14.00" fill="#000000">AddThree</text>
</g>
<!-- 7&#45;&gt;8 -->
<g id="edge7" class="edge">
<title>7-&gt;8</title>
<path fill="none" stroke="#000000" d="M529.0438,-179.1055C505.1037,-164.8379 470.3154,-144.105 444.123,-128.495"/>
<polygon fill="#000000" stroke="#000000" points="445.6307,-125.3191 435.2487,-123.2062 442.047,-131.3323 445.6307,-125.3191"/>
<text text-anchor="middle" x="506.7737" y="-147" font-family="Times,serif" font-size="14.00" fill="#000000">Add</text>
</g>
<!-- 8&#45;&gt;9 -->
<g id="edge10" class="edge">
<title>8-&gt;9</title>
<path fill="none" stroke="#000000" d="M380.4,-90.3383C363.0408,-79.8958 340.084,-66.1178 319.7204,-54 311.8889,-49.3397 303.4796,-44.3606 295.4833,-39.638"/>
<polygon fill="#000000" stroke="#000000" points="297.0748,-36.5132 286.6837,-34.4455 293.5174,-42.5419 297.0748,-36.5132"/>
<text text-anchor="middle" x="374.0949" y="-58.2" font-family="Times,serif" font-size="14.00" fill="#000000">AddThree</text>
</g>
</g>
</svg>