<?xml version="1.0" encoding="UTF-8" standalone="no"?><!DOCTYPE svg PUBLIC "-//W3C//DTD SVG 1.1//EN" "http://www.w3.org/Graphics/SVG/1.1/DTD/svg11.dtd"><!-- Generated by graphviz version 2.40.1 (20161225.0304)
 --><!-- Title: Dag Pages: 1 --><svg xmlns="http://www.w3.org/2000/svg" xmlns:xlink="http://www.w3.org/1999/xlink" width="288pt" height="310pt" viewBox="0.00 0.00 288.47 310.40">
<g id="graph0" class="graph" transform="scale(1 1) rotate(0) translate(4 306.4)">
<title>Dag</title>
<polygon fill="#ffffff" stroke="transparent" points="-4,4 -4,-306.4 284.4707,-306.4 284.4707,4 -4,4"/>
<!-- node_0 -->
<g id="node1" class="node">
<title>node_0</title>
<ellipse fill="none" stroke="#000000" cx="65.7354" cy="-284.4" rx="65.9716" ry="18"/>
<text text-anchor="middle" x="65.7354" y="-280.2" font-family="Times,serif" font-size="14.00" fill="#000000">NumberValue</text>
</g>
<!-- node_1 -->
<g id="node2" class="node">
<title>node_1</title>
<ellipse fill="none" stroke="#000000" cx="65.7354" cy="-195.6" rx="65.9716" ry="18"/>
<text text-anchor="middle" x="65.7354" y="-191.4" font-family="Times,serif" font-size="14.00" fill="#000000">NumberValue</text>
</g>
<!-- node_0&#45;&gt;node_1 -->
<g id="edge1" class="edge">
<title>node_0-&gt;node_1</title>
<path fill="none" stroke="#000000" d="M65.7354,-266.0006C65.7354,-253.8949 65.7354,-237.8076 65.7354,-224.0674"/>
<polygon fill="#000000" stroke="#000000" points="69.2355,-223.672 65.7354,-213.672 62.2355,-223.6721 69.2355,-223.672"/>
<text text-anchor="middle" x="85.1716" y="-235.8" font-family="Times,serif" font-size="14.00" fill="#000000">Square</text>
</g>
<!-- node_3 -->
<g id="node4" class="node">
<title>node_3</title>
<ellipse fill="none" stroke="#000000" cx="165.7354" cy="-106.8" rx="65.9716" ry="18"/>
<text text-anchor="middle" x="165.7354" y="-102.6" font-family="Times,serif" font-size="14.00" fill="#000000">NumberValue</text>
</g>
<!-- node_1&#45;&gt;node_3 -->
<g id="edge2" class="edge TwoNumbersDep">
<title>node_1-&gt;node_3</title>
<path fill="none" stroke="#000000" d="M85.4922,-178.056C100.656,-164.5905 121.7645,-145.8462 138.5259,-130.962"/>
<polygon fill="#000000" stroke="#000000" points="141.2065,-133.2625 146.3599,-124.0054 136.5585,-128.0283 141.2065,-133.2625"/>
<text text-anchor="middle" x="136.7887" y="-147" font-family="Times,serif" font-size="14.00" fill="#000000">Add</text>
</g>
<!-- node_2 -->
<g id="node3" class="node">
<title>node_2</title>
<ellipse fill="none" stroke="#000000" cx="214.7354" cy="-195.6" rx="65.9716" ry="18"/>
<text text-anchor="middle" x="214.7354" y="-191.4" font-family="Times,serif" font-size="14.00" fill="#000000">NumberValue</text>
</g>
<!-- node_2&#45;&gt;node_3 -->
<g id="edge3" class="edge TwoNumbersDep">
<title>node_2-&gt;node_3</title>
<path fill="none" stroke="#000000" d="M204.8195,-177.63C197.8458,-164.9919 188.3935,-147.862 180.5314,-133.614"/>
<polygon fill="#000000" stroke="#000000" points="183.5323,-131.8078 175.6365,-124.7433 177.4034,-135.1898 183.5323,-131.8078"/>
<text text-anchor="middle" x="205.7887" y="-147" font-family="Times,serif" font-size="14.00" fill="#000000">Add</text>
</g>
<!-- node_4 -->
<g id="node5" class="node">
<title>node_4</title>
<ellipse fill="none" stroke="#000000" cx="165.7354" cy="-18" rx="65.9716" ry="18"/>
<text text-anchor="middle" x="165.7354" y="-13.8" font-family="Times,serif" font-size="14.00" fill="#000000">NumberValue</text>
</g>
<!-- node_3&#45;&gt;node_4 -->
<g id="edge4" class="edge">
<title>node_3-&gt;node_4</title>
<path fill="none" stroke="#000000" d="M165.7354,-88.4006C165.7354,-76.2949 165.7354,-60.2076 165.7354,-46.4674"/>
<polygon fill="#000000" stroke="#000000" points="169.2355,-46.072 165.7354,-36.072 162.2355,-46.0721 169.2355,-46.072"/>
<text text-anchor="middle" x="185.1716" y="-58.2" font-family="Times,serif" font-size="14.00" fill="#000000">Square</text>
</g>
</g>
</svg>