<?xml version="1.0" encoding="UTF-8" standalone="no"?><!DOCTYPE svg PUBLIC "-//W3C//DTD SVG 1.1//EN" "http://www.w3.org/Graphics/SVG/1.1/DTD/svg11.dtd"><!-- Generated by graphviz version 2.40.1 (20161225.0304)
 --><!-- Title: G Pages: 1 --><svg xmlns="http://www.w3.org/2000/svg" xmlns:xlink="http://www.w3.org/1999/xlink" width="278pt" height="133pt" viewBox="0.00 0.00 278.12 132.80">
<g id="graph0" class="graph" transform="scale(1 1) rotate(0) translate(4 128.8)">
<title>G</title>
<polygon fill="#ffffff" stroke="transparent" points="-4,4 -4,-128.8 274.1247,-128.8 274.1247,4 -4,4"/>
<!-- 2 -->
<g id="node1" class="node">
<title>2</title>
<ellipse fill="none" stroke="#000000" cx="135.0623" cy="-18" rx="63.1247" ry="18"/>
<text text-anchor="middle" x="135.0623" y="-13.8" font-family="Times,serif" font-size="14.00" fill="#000000">NumberInput</text>
</g>
<!-- 0 -->
<g id="node2" class="node">
<title>0</title>
<ellipse fill="none" stroke="#000000" cx="63.0623" cy="-106.8" rx="63.1247" ry="18"/>
<text text-anchor="middle" x="63.0623" y="-102.6" font-family="Times,serif" font-size="14.00" fill="#000000">NumberInput</text>
</g>
<!-- 0&#45;&gt;2 -->
<g id="edge1" class="edge">
<title>0-&gt;2</title>
<path fill="none" stroke="#000000" d="M77.2872,-89.256C87.7704,-76.3267 102.1996,-58.5307 114.0153,-43.9581"/>
<polygon fill="#000000" stroke="#000000" points="117.0412,-45.7834 120.6206,-35.8115 111.6038,-41.3748 117.0412,-45.7834"/>
<text text-anchor="middle" x="130.5658" y="-58.2" font-family="Times,serif" font-size="14.00" fill="#000000">Multiply</text>
</g>
<!-- 1 -->
<g id="node3" class="node">
<title>1</title>
<ellipse fill="none" stroke="#000000" cx="207.0623" cy="-106.8" rx="63.1247" ry="18"/>
<text text-anchor="middle" x="207.0623" y="-102.6" font-family="Times,serif" font-size="14.00" fill="#000000">NumberInput</text>
</g>
<!-- 1&#45;&gt;2 -->
<g id="edge2" class="edge">
<title>1-&gt;2</title>
<path fill="none" stroke="#000000" d="M192.8374,-89.256C182.3543,-76.3267 167.9251,-58.5307 156.1094,-43.9581"/>
<polygon fill="#000000" stroke="#000000" points="158.5208,-41.3748 149.5041,-35.8115 153.0835,-45.7834 158.5208,-41.3748"/>
<text text-anchor="middle" x="201.5658" y="-58.2" font-family="Times,serif" font-size="14.00" fill="#000000">Multiply</text>
</g>
</g>
</svg>