<?xml version="1.0" encoding="UTF-8" standalone="no"?><!DOCTYPE svg PUBLIC "-//W3C//DTD SVG 1.1//EN" "http://www.w3.org/Graphics/SVG/1.1/DTD/svg11.dtd"><!-- Generated by graphviz version 2.40.1 (20161225.0304)
 --><!-- Title: G Pages: 1 --><svg xmlns="http://www.w3.org/2000/svg" xmlns:xlink="http://www.w3.org/1999/xlink" width="278pt" height="116pt" viewBox="0.00 0.00 278.12 116.00">
<g id="graph0" class="graph" transform="scale(1 1) rotate(0) translate(4 112)">
<title>G</title>
<polygon fill="#ffffff" stroke="transparent" points="-4,4 -4,-112 274.1247,-112 274.1247,4 -4,4"/>
<!-- 2 -->
<g id="node1" class="node">
<title>2</title>
<ellipse fill="none" stroke="#000000" cx="135.0623" cy="-18" rx="63.1247" ry="18"/>
<text text-anchor="middle" x="135.0623" y="-13.8" font-family="Times,serif" font-size="14.00" fill="#000000">NumberInput</text>
</g>
<!-- 0 -->
<g id="node2" class="node">
<title>0</title>
<ellipse fill="none" stroke="#000000" cx="63.0623" cy="-90" rx="63.1247" ry="18"/>
<text text-anchor="middle" x="63.0623" y="-85.8" font-family="Times,serif" font-size="14.00" fill="#000000">NumberInput</text>
</g>
<!-- 0&#45;&gt;2 -->
<g id="edge1" class="edge">
<title>0-&gt;2</title>
<path fill="none" stroke="#000000" d="M80.4915,-72.5708C89.446,-63.6164 100.5113,-52.551 110.3322,-42.7302"/>
<polygon fill="#000000" stroke="#000000" points="112.9479,-45.0642 117.5441,-35.5182 107.9981,-40.1145 112.9479,-45.0642"/>
</g>
<!-- 1 -->
<g id="node3" class="node">
<title>1</title>
<ellipse fill="none" stroke="#000000" cx="207.0623" cy="-90" rx="63.1247" ry="18"/>
<text text-anchor="middle" x="207.0623" y="-85.8" font-family="Times,serif" font-size="14.00" fill="#000000">NumberInput</text>
</g>
<!-- 1&#45;&gt;2 -->
<g id="edge2" class="edge">
<title>1-&gt;2</title>
<path fill="none" stroke="#000000" d="M189.6331,-72.5708C180.6787,-63.6164 169.6133,-52.551 159.7925,-42.7302"/>
<polygon fill="#000000" stroke="#000000" points="162.1265,-40.1145 152.5806,-35.5182 157.1768,-45.0642 162.1265,-40.1145"/>
</g>
</g>
</svg>