<?xml version="1.0" encoding="UTF-8" standalone="no"?><!DOCTYPE svg PUBLIC "-//W3C//DTD SVG 1.1//EN" "http://www.w3.org/Graphics/SVG/1.1/DTD/svg11.dtd"><!-- Generated by graphviz version 2.40.1 (20161225.0304)
 --><!-- Title: G Pages: 1 --><svg xmlns="http://www.w3.org/2000/svg" xmlns:xlink="http://www.w3.org/1999/xlink" width="278pt" height="116pt" viewBox="0.00 0.00 278.12 116.00">
<g id="graph0" class="graph" transform="scale(1 1) rotate(0) translate(4 112)">
<title>G</title>
<polygon fill="#ffffff" stroke="transparent" points="-4,4 -4,-112 274.1247,-112 274.1247,4 -4,4"/>
<!-- 2 -->
<g id="node1" class="node">
<title>2</title>
<ellipse fill="none" stroke="#000000" cx="135.0623" cy="-18" rx="28.9929" ry="18"/>
<text text-anchor="middle" x="135.0623" y="-13.8" font-family="Times,serif" font-size="14.00" fill="#000000">Sum</text>
</g>
<!-- 0 -->
<g id="node2" class="node">
<title>0</title>
<ellipse fill="none" stroke="#000000" cx="63.0623" cy="-90" rx="63.1247" ry="18"/>
<text text-anchor="middle" x="63.0623" y="-85.8" font-family="Times,serif" font-size="14.00" fill="#000000">NumberInput</text>
</g>
<!-- 0&#45;&gt;2 -->
<g id="edge1" class="edge">
<title>0-&gt;2</title>
<path fill="none" stroke="#000000" d="M80.4915,-72.5708C90.1366,-62.9258 102.2307,-50.8316 112.5807,-40.4816"/>
<polygon fill="#000000" stroke="#000000" points="115.1527,-42.8594 119.7489,-33.3134 110.203,-37.9096 115.1527,-42.8594"/>
</g>
<!-- 1 -->
<g id="node3" class="node">
<title>1</title>
<ellipse fill="none" stroke="#000000" cx="207.0623" cy="-90" rx="63.1247" ry="18"/>
<text text-anchor="middle" x="207.0623" y="-85.8" font-family="Times,serif" font-size="14.00" fill="#000000">NumberInput</text>
</g>
<!-- 1&#45;&gt;2 -->
<g id="edge2" class="edge">
<title>1-&gt;2</title>
<path fill="none" stroke="#000000" d="M189.6331,-72.5708C179.9881,-62.9258 167.894,-50.8316 157.544,-40.4816"/>
<polygon fill="#000000" stroke="#000000" points="159.9217,-37.9096 150.3757,-33.3134 154.9719,-42.8594 159.9217,-37.9096"/>
</g>
</g>
</svg>