<?xml version="1.0" encoding="UTF-8" standalone="no"?><!DOCTYPE svg PUBLIC "-//W3C//DTD SVG 1.1//EN" "http://www.w3.org/Graphics/SVG/1.1/DTD/svg11.dtd"><!-- Generated by graphviz version 2.40.1 (20161225.0304)
 --><!-- Title: G Pages: 1 --><svg xmlns="http://www.w3.org/2000/svg" xmlns:xlink="http://www.w3.org/1999/xlink" width="704pt" height="260pt" viewBox="0.00 0.00 704.46 260.00">
<g id="graph0" class="graph" transform="scale(1 1) rotate(0) translate(4 256)">
<title>G</title>
<polygon fill="#ffffff" stroke="transparent" points="-4,4 -4,-256 700.4557,-256 700.4557,4 -4,4"/>
<!-- 0 -->
<g id="node1" class="node">
<title>0</title>
<ellipse fill="none" stroke="#000000" cx="288.7354" cy="-162" rx="65.9716" ry="18"/>
<text text-anchor="middle" x="288.7354" y="-157.8" font-family="Times,serif" font-size="14.00" fill="#000000">NumberValue</text>
</g>
<!-- 6 -->
<g id="node7" class="node">
<title>6</title>
<ellipse fill="none" stroke="#000000" cx="437.7354" cy="-90" rx="65.9716" ry="18"/>
<text text-anchor="middle" x="437.7354" y="-85.8" font-family="Times,serif" font-size="14.00" fill="#000000">NumberValue</text>
</g>
<!-- 0&#45;&gt;6 -->
<g id="edge2" class="edge">
<title>0-&gt;6</title>
<path fill="none" stroke="#000000" d="M321.4341,-146.1993C343.3657,-135.6015 372.4432,-121.5506 396.0368,-110.1497"/>
<polygon fill="#000000" stroke="#000000" points="397.6319,-113.2661 405.113,-105.7638 394.5863,-106.9634 397.6319,-113.2661"/>
</g>
<!-- 8 -->
<g id="node9" class="node">
<title>8</title>
<ellipse fill="none" stroke="#000000" cx="288.7354" cy="-90" rx="65.9716" ry="18"/>
<text text-anchor="middle" x="288.7354" y="-85.8" font-family="Times,serif" font-size="14.00" fill="#000000">NumberValue</text>
</g>
<!-- 0&#45;&gt;8 -->
<g id="edge6" class="edge">
<title>0-&gt;8</title>
<path fill="none" stroke="#000000" d="M288.7354,-143.8314C288.7354,-136.131 288.7354,-126.9743 288.7354,-118.4166"/>
<polygon fill="#000000" stroke="#000000" points="292.2355,-118.4132 288.7354,-108.4133 285.2355,-118.4133 292.2355,-118.4132"/>
</g>
<!-- 1 -->
<g id="node2" class="node">
<title>1</title>
<ellipse fill="none" stroke="#000000" cx="437.7354" cy="-162" rx="65.9716" ry="18"/>
<text text-anchor="middle" x="437.7354" y="-157.8" font-family="Times,serif" font-size="14.00" fill="#000000">NumberValue</text>
</g>
<!-- 1&#45;&gt;6 -->
<g id="edge3" class="edge">
<title>1-&gt;6</title>
<path fill="none" stroke="#000000" d="M437.7354,-143.8314C437.7354,-136.131 437.7354,-126.9743 437.7354,-118.4166"/>
<polygon fill="#000000" stroke="#000000" points="441.2355,-118.4132 437.7354,-108.4133 434.2355,-118.4133 441.2355,-118.4132"/>
</g>
<!-- 2 -->
<g id="node3" class="node">
<title>2</title>
<ellipse fill="none" stroke="#000000" cx="608.7354" cy="-162" rx="87.9413" ry="18"/>
<text text-anchor="middle" x="608.7354" y="-157.8" font-family="Times,serif" font-size="14.00" fill="#000000">OtherNumberValue</text>
</g>
<!-- 5 -->
<g id="node6" class="node">
<title>5</title>
<ellipse fill="none" stroke="#000000" cx="597.7354" cy="-90" rx="65.9716" ry="18"/>
<text text-anchor="middle" x="597.7354" y="-85.8" font-family="Times,serif" font-size="14.00" fill="#000000">NumberValue</text>
</g>
<!-- 2&#45;&gt;5 -->
<g id="edge1" class="edge">
<title>2-&gt;5</title>
<path fill="none" stroke="#000000" d="M605.9596,-143.8314C604.7832,-136.131 603.3842,-126.9743 602.0768,-118.4166"/>
<polygon fill="#000000" stroke="#000000" points="605.5187,-117.7699 600.5485,-108.4133 598.599,-118.8272 605.5187,-117.7699"/>
</g>
<!-- 3 -->
<g id="node4" class="node">
<title>3</title>
<ellipse fill="none" stroke="#000000" cx="65.7354" cy="-234" rx="65.9716" ry="18"/>
<text text-anchor="middle" x="65.7354" y="-229.8" font-family="Times,serif" font-size="14.00" fill="#000000">NumberValue</text>
</g>
<!-- 7 -->
<g id="node8" class="node">
<title>7</title>
<ellipse fill="none" stroke="#000000" cx="139.7354" cy="-162" rx="65.9716" ry="18"/>
<text text-anchor="middle" x="139.7354" y="-157.8" font-family="Times,serif" font-size="14.00" fill="#000000">NumberValue</text>
</g>
<!-- 3&#45;&gt;7 -->
<g id="edge4" class="edge">
<title>3-&gt;7</title>
<path fill="none" stroke="#000000" d="M83.6487,-216.5708C92.8519,-207.6164 104.2246,-196.551 114.3183,-186.7302"/>
<polygon fill="#000000" stroke="#000000" points="117.004,-189.0004 121.7305,-179.5182 112.1225,-183.9833 117.004,-189.0004"/>
</g>
<!-- 4 -->
<g id="node5" class="node">
<title>4</title>
<ellipse fill="none" stroke="#000000" cx="214.7354" cy="-234" rx="65.9716" ry="18"/>
<text text-anchor="middle" x="214.7354" y="-229.8" font-family="Times,serif" font-size="14.00" fill="#000000">NumberValue</text>
</g>
<!-- 4&#45;&gt;7 -->
<g id="edge5" class="edge">
<title>4-&gt;7</title>
<path fill="none" stroke="#000000" d="M196.58,-216.5708C187.2524,-207.6164 175.726,-196.551 165.4959,-186.7302"/>
<polygon fill="#000000" stroke="#000000" points="167.6213,-183.9187 157.9835,-179.5182 162.7736,-188.9685 167.6213,-183.9187"/>
</g>
<!-- 9 -->
<g id="node10" class="node">
<title>9</title>
<ellipse fill="none" stroke="#000000" cx="437.7354" cy="-18" rx="65.9716" ry="18"/>
<text text-anchor="middle" x="437.7354" y="-13.8" font-family="Times,serif" font-size="14.00" fill="#000000">NumberValue</text>
</g>
<!-- 5&#45;&gt;9 -->
<g id="edge8" class="edge">
<title>5-&gt;9</title>
<path fill="none" stroke="#000000" d="M563.4114,-74.5542C539.3681,-63.7347 507.0472,-49.1903 481.2036,-37.5607"/>
<polygon fill="#000000" stroke="#000000" points="482.5581,-34.3322 472.0026,-33.4203 479.6855,-40.7157 482.5581,-34.3322"/>
</g>
<!-- 6&#45;&gt;9 -->
<g id="edge9" class="edge">
<title>6-&gt;9</title>
<path fill="none" stroke="#000000" d="M437.7354,-71.8314C437.7354,-64.131 437.7354,-54.9743 437.7354,-46.4166"/>
<polygon fill="#000000" stroke="#000000" points="441.2355,-46.4132 437.7354,-36.4133 434.2355,-46.4133 441.2355,-46.4132"/>
</g>
<!-- 7&#45;&gt;8 -->
<g id="edge7" class="edge">
<title>7-&gt;8</title>
<path fill="none" stroke="#000000" d="M172.4341,-146.1993C194.3657,-135.6015 223.4432,-121.5506 247.0368,-110.1497"/>
<polygon fill="#000000" stroke="#000000" points="248.6319,-113.2661 256.113,-105.7638 245.5863,-106.9634 248.6319,-113.2661"/>
</g>
<!-- 8&#45;&gt;9 -->
<g id="edge10" class="edge">
<title>8-&gt;9</title>
<path fill="none" stroke="#000000" d="M321.4341,-74.1993C343.3657,-63.6015 372.4432,-49.5506 396.0368,-38.1497"/>
<polygon fill="#000000" stroke="#000000" points="397.6319,-41.2661 405.113,-33.7638 394.5863,-34.9634 397.6319,-41.2661"/>
</g>
</g>
</svg>