<?xml version="1.0" encoding="UTF-8" standalone="no"?><!DOCTYPE svg PUBLIC "-//W3C//DTD SVG 1.1//EN" "http://www.w3.org/Graphics/SVG/1.1/DTD/svg11.dtd"><!-- Generated by graphviz version 2.40.1 (20161225.0304)
 --><!-- Title: G Pages: 1 --><svg xmlns="http://www.w3.org/2000/svg" xmlns:xlink="http://www.w3.org/1999/xlink" width="422pt" height="188pt" viewBox="0.00 0.00 422.12 188.00">
<g id="graph0" class="graph" transform="scale(1 1) rotate(0) translate(4 184)">
<title>G</title>
<polygon fill="#ffffff" stroke="transparent" points="-4,4 -4,-184 418.1247,-184 418.1247,4 -4,4"/>
<!-- 5 -->
<g id="node1" class="node">
<title>5</title>
<ellipse fill="none" stroke="#000000" cx="207.0623" cy="-18" rx="41.1297" ry="18"/>
<text text-anchor="middle" x="207.0623" y="-13.8" font-family="Times,serif" font-size="14.00" fill="#000000">Answer</text>
</g>
<!-- 3 -->
<g id="node2" class="node">
<title>3</title>
<ellipse fill="none" stroke="#000000" cx="161.0623" cy="-90" rx="28.9929" ry="18"/>
<text text-anchor="middle" x="161.0623" y="-85.8" font-family="Times,serif" font-size="14.00" fill="#000000">Sum</text>
</g>
<!-- 3&#45;&gt;5 -->
<g id="edge5" class="edge">
<title>3-&gt;5</title>
<path fill="none" stroke="#000000" d="M171.9637,-72.937C177.4965,-64.277 184.3351,-53.5731 190.5019,-43.9207"/>
<polygon fill="#000000" stroke="#000000" points="193.4852,-45.752 195.9197,-35.4407 187.5863,-41.9833 193.4852,-45.752"/>
</g>
<!-- 0 -->
<g id="node3" class="node">
<title>0</title>
<ellipse fill="none" stroke="#000000" cx="207.0623" cy="-162" rx="63.1247" ry="18"/>
<text text-anchor="middle" x="207.0623" y="-157.8" font-family="Times,serif" font-size="14.00" fill="#000000">NumberInput</text>
</g>
<!-- 0&#45;&gt;3 -->
<g id="edge1" class="edge">
<title>0-&gt;3</title>
<path fill="none" stroke="#000000" d="M195.6915,-144.2022C190.2075,-135.6186 183.5265,-125.1613 177.5011,-115.7303"/>
<polygon fill="#000000" stroke="#000000" points="180.3189,-113.6398 171.9856,-107.0972 174.4201,-117.4086 180.3189,-113.6398"/>
</g>
<!-- 4 -->
<g id="node5" class="node">
<title>4</title>
<ellipse fill="none" stroke="#000000" cx="253.0623" cy="-90" rx="44.6818" ry="18"/>
<text text-anchor="middle" x="253.0623" y="-85.8" font-family="Times,serif" font-size="14.00" fill="#000000">Multiply</text>
</g>
<!-- 0&#45;&gt;4 -->
<g id="edge3" class="edge">
<title>0-&gt;4</title>
<path fill="none" stroke="#000000" d="M218.4331,-144.2022C223.8365,-135.7448 230.4019,-125.4685 236.3573,-116.147"/>
<polygon fill="#000000" stroke="#000000" points="239.3878,-117.9044 241.8223,-107.593 233.489,-114.1356 239.3878,-117.9044"/>
</g>
<!-- 1 -->
<g id="node4" class="node">
<title>1</title>
<ellipse fill="none" stroke="#000000" cx="63.0623" cy="-162" rx="63.1247" ry="18"/>
<text text-anchor="middle" x="63.0623" y="-157.8" font-family="Times,serif" font-size="14.00" fill="#000000">NumberInput</text>
</g>
<!-- 1&#45;&gt;3 -->
<g id="edge2" class="edge">
<title>1-&gt;3</title>
<path fill="none" stroke="#000000" d="M86.287,-144.937C100.5762,-134.4388 118.9536,-120.937 133.9136,-109.946"/>
<polygon fill="#000000" stroke="#000000" points="136.2837,-112.5478 142.2702,-103.8064 132.1391,-106.9067 136.2837,-112.5478"/>
</g>
<!-- 4&#45;&gt;5 -->
<g id="edge6" class="edge">
<title>4-&gt;5</title>
<path fill="none" stroke="#000000" d="M241.6915,-72.2022C236.2478,-63.6817 229.6247,-53.315 223.6341,-43.9385"/>
<polygon fill="#000000" stroke="#000000" points="226.477,-41.8872 218.1436,-35.3446 220.5781,-45.6559 226.477,-41.8872"/>
</g>
<!-- 2 -->
<g id="node6" class="node">
<title>2</title>
<ellipse fill="none" stroke="#000000" cx="351.0623" cy="-162" rx="63.1247" ry="18"/>
<text text-anchor="middle" x="351.0623" y="-157.8" font-family="Times,serif" font-size="14.00" fill="#000000">NumberInput</text>
</g>
<!-- 2&#45;&gt;4 -->
<g id="edge4" class="edge">
<title>2-&gt;4</title>
<path fill="none" stroke="#000000" d="M327.8377,-144.937C314.4002,-135.0645 297.3473,-122.5359 282.9209,-111.9369"/>
<polygon fill="#000000" stroke="#000000" points="284.9086,-109.0542 274.7775,-105.954 280.7641,-114.6954 284.9086,-109.0542"/>
</g>
</g>
</svg>