<?xml version="1.0" encoding="UTF-8" standalone="no"?><!DOCTYPE svg PUBLIC "-//W3C//DTD SVG 1.1//EN" "http://www.w3.org/Graphics/SVG/1.1/DTD/svg11.dtd"><!-- Generated by graphviz version 2.40.1 (20161225.0304)
 --><!-- Title: G Pages: 1 --><svg xmlns="http://www.w3.org/2000/svg" xmlns:xlink="http://www.w3.org/1999/xlink" width="422pt" height="260pt" viewBox="0.00 0.00 422.12 260.00">
<g id="graph0" class="graph" transform="scale(1 1) rotate(0) translate(4 256)">
<title>G</title>
<polygon fill="#ffffff" stroke="transparent" points="-4,4 -4,-256 418.1247,-256 418.1247,4 -4,4"/>
<!-- 0 -->
<g id="node1" class="node">
<title>0</title>
<ellipse fill="none" stroke="#000000" cx="207.0623" cy="-234" rx="63.1247" ry="18"/>
<text text-anchor="middle" x="207.0623" y="-229.8" font-family="Times,serif" font-size="14.00" fill="#000000">NumberInput</text>
</g>
<!-- 3 -->
<g id="node4" class="node">
<title>3</title>
<ellipse fill="none" stroke="#000000" cx="161.0623" cy="-162" rx="28.9929" ry="18"/>
<text text-anchor="middle" x="161.0623" y="-157.8" font-family="Times,serif" font-size="14.00" fill="#000000">Sum</text>
</g>
<!-- 0&#45;&gt;3 -->
<g id="edge1" class="edge">
<title>0-&gt;3</title>
<path fill="none" stroke="#000000" d="M195.6915,-216.2022C190.2075,-207.6186 183.5265,-197.1613 177.5011,-187.7303"/>
<polygon fill="#000000" stroke="#000000" points="180.3189,-185.6398 171.9856,-179.0972 174.4201,-189.4086 180.3189,-185.6398"/>
</g>
<!-- 4 -->
<g id="node5" class="node">
<title>4</title>
<ellipse fill="none" stroke="#000000" cx="253.0623" cy="-162" rx="44.6818" ry="18"/>
<text text-anchor="middle" x="253.0623" y="-157.8" font-family="Times,serif" font-size="14.00" fill="#000000">Multiply</text>
</g>
<!-- 0&#45;&gt;4 -->
<g id="edge3" class="edge">
<title>0-&gt;4</title>
<path fill="none" stroke="#000000" d="M218.4331,-216.2022C223.8365,-207.7448 230.4019,-197.4685 236.3573,-188.147"/>
<polygon fill="#000000" stroke="#000000" points="239.3878,-189.9044 241.8223,-179.593 233.489,-186.1356 239.3878,-189.9044"/>
</g>
<!-- 1 -->
<g id="node2" class="node">
<title>1</title>
<ellipse fill="none" stroke="#000000" cx="63.0623" cy="-234" rx="63.1247" ry="18"/>
<text text-anchor="middle" x="63.0623" y="-229.8" font-family="Times,serif" font-size="14.00" fill="#000000">NumberInput</text>
</g>
<!-- 1&#45;&gt;3 -->
<g id="edge2" class="edge">
<title>1-&gt;3</title>
<path fill="none" stroke="#000000" d="M86.287,-216.937C100.5762,-206.4388 118.9536,-192.937 133.9136,-181.946"/>
<polygon fill="#000000" stroke="#000000" points="136.2837,-184.5478 142.2702,-175.8064 132.1391,-178.9067 136.2837,-184.5478"/>
</g>
<!-- 2 -->
<g id="node3" class="node">
<title>2</title>
<ellipse fill="none" stroke="#000000" cx="351.0623" cy="-234" rx="63.1247" ry="18"/>
<text text-anchor="middle" x="351.0623" y="-229.8" font-family="Times,serif" font-size="14.00" fill="#000000">NumberInput</text>
</g>
<!-- 2&#45;&gt;4 -->
<g id="edge4" class="edge">
<title>2-&gt;4</title>
<path fill="none" stroke="#000000" d="M327.8377,-216.937C314.4002,-207.0645 297.3473,-194.5359 282.9209,-183.9369"/>
<polygon fill="#000000" stroke="#000000" points="284.9086,-181.0542 274.7775,-177.954 280.7641,-186.6954 284.9086,-181.0542"/>
</g>
<!-- 6 -->
<g id="node7" class="node">
<title>6</title>
<ellipse fill="none" stroke="#000000" cx="207.0623" cy="-18" rx="41.1297" ry="18"/>
<text text-anchor="middle" x="207.0623" y="-13.8" font-family="Times,serif" font-size="14.00" fill="#000000">Answer</text>
</g>
<!-- 3&#45;&gt;6 -->
<g id="edge6" class="edge">
<title>3-&gt;6</title>
<path fill="none" stroke="#000000" d="M166.7028,-144.3428C174.5574,-119.7545 188.8696,-74.9511 198.1691,-45.8397"/>
<polygon fill="#000000" stroke="#000000" points="201.5216,-46.8468 201.2306,-36.256 194.8535,-44.7167 201.5216,-46.8468"/>
</g>
<!-- 5 -->
<g id="node6" class="node">
<title>5</title>
<ellipse fill="none" stroke="#000000" cx="246.0623" cy="-90" rx="37.7006" ry="18"/>
<text text-anchor="middle" x="246.0623" y="-85.8" font-family="Times,serif" font-size="14.00" fill="#000000">Square</text>
</g>
<!-- 4&#45;&gt;5 -->
<g id="edge5" class="edge">
<title>4-&gt;5</title>
<path fill="none" stroke="#000000" d="M251.2959,-143.8314C250.5473,-136.131 249.6571,-126.9743 248.8251,-118.4166"/>
<polygon fill="#000000" stroke="#000000" points="252.3038,-118.0276 247.8525,-108.4133 245.3367,-118.7051 252.3038,-118.0276"/>
</g>
<!-- 5&#45;&gt;6 -->
<g id="edge7" class="edge">
<title>5-&gt;6</title>
<path fill="none" stroke="#000000" d="M236.4219,-72.2022C231.888,-63.832 226.3891,-53.6802 221.3816,-44.4356"/>
<polygon fill="#000000" stroke="#000000" points="224.4323,-42.719 216.5919,-35.593 218.2772,-46.053 224.4323,-42.719"/>
</g>
</g>
</svg>