<?xml version="1.0" encoding="UTF-8" standalone="no"?><!DOCTYPE svg PUBLIC "-//W3C//DTD SVG 1.1//EN" "http://www.w3.org/Graphics/SVG/1.1/DTD/svg11.dtd"><!-- Generated by graphviz version 2.40.1 (20161225.0304)
 --><!-- Title: Dag Pages: 1 --><svg xmlns="http://www.w3.org/2000/svg" xmlns:xlink="http://www.w3.org/1999/xlink" width="578pt" height="507pt" viewBox="0.00 0.00 578.35 507.20">
<g id="graph0" class="graph" transform="scale(1 1) rotate(0) translate(4 503.2)">
<title>Dag</title>
<polygon fill="#ffffff" stroke="transparent" points="-4,4 -4,-503.2 574.3482,-503.2 574.3482,4 -4,4"/>
<!-- node_0 -->
<g id="node1" class="node">
<title>node_0</title>
<ellipse fill="#32a431" stroke="#000000" cx="211.6741" cy="-481.2" rx="64.8486" ry="18"/>
<text text-anchor="middle" x="211.6741" y="-477" font-family="Times,serif" font-size="14.00" fill="#000000">SomeNumber</text>
</g>
<!-- node_5 -->
<g id="node6" class="node">
<title>node_5</title>
<ellipse fill="#32a431" stroke="#000000" cx="211.6741" cy="-392.4" rx="64.8486" ry="18"/>
<text text-anchor="middle" x="211.6741" y="-388.2" font-family="Times,serif" font-size="14.00" fill="#000000">SomeNumber</text>
</g>
<!-- node_0&#45;&gt;node_5 -->
<g id="edge1" class="edge TwoNumbersDep">
<title>node_0-&gt;node_5</title>
<path fill="none" stroke="#000000" d="M211.6741,-462.8006C211.6741,-450.6949 211.6741,-434.6076 211.6741,-420.8674"/>
<polygon fill="#000000" stroke="#000000" points="215.1742,-420.472 211.6741,-410.472 208.1742,-420.4721 215.1742,-420.472"/>
<text text-anchor="middle" x="236.1776" y="-432.6" font-family="Times,serif" font-size="14.00" fill="#000000">Multiply</text>
</g>
<!-- node_1 -->
<g id="node2" class="node">
<title>node_1</title>
<ellipse fill="#32a431" stroke="#000000" cx="64.6741" cy="-481.2" rx="64.8486" ry="18"/>
<text text-anchor="middle" x="64.6741" y="-477" font-family="Times,serif" font-size="14.00" fill="#000000">SomeNumber</text>
</g>
<!-- node_1&#45;&gt;node_5 -->
<g id="edge2" class="edge TwoNumbersDep">
<title>node_1-&gt;node_5</title>
<path fill="none" stroke="#000000" d="M91.9791,-464.7055C115.5979,-450.4379 149.9192,-429.705 175.7601,-414.095"/>
<polygon fill="#000000" stroke="#000000" points="177.7655,-416.9726 184.5152,-408.8062 174.146,-410.981 177.7655,-416.9726"/>
<text text-anchor="middle" x="175.1776" y="-432.6" font-family="Times,serif" font-size="14.00" fill="#000000">Multiply</text>
</g>
<!-- node_2 -->
<g id="node3" class="node">
<title>node_2</title>
<ellipse fill="#32a431" stroke="#000000" cx="358.6741" cy="-481.2" rx="64.8486" ry="18"/>
<text text-anchor="middle" x="358.6741" y="-477" font-family="Times,serif" font-size="14.00" fill="#000000">SomeNumber</text>
</g>
<!-- node_6 -->
<g id="node7" class="node">
<title>node_6</title>
<ellipse fill="#32a431" stroke="#000000" cx="358.6741" cy="-392.4" rx="64.8486" ry="18"/>
<text text-anchor="middle" x="358.6741" y="-388.2" font-family="Times,serif" font-size="14.00" fill="#000000">SomeNumber</text>
</g>
<!-- node_2&#45;&gt;node_6 -->
<g id="edge4" class="edge TwoNumbersDep">
<title>node_2-&gt;node_6</title>
<path fill="none" stroke="#000000" d="M358.6741,-462.8006C358.6741,-450.6949 358.6741,-434.6076 358.6741,-420.8674"/>
<polygon fill="#000000" stroke="#000000" points="362.1742,-420.472 358.6741,-410.472 355.1742,-420.4721 362.1742,-420.472"/>
<text text-anchor="middle" x="382.0009" y="-432.6" font-family="Times,serif" font-size="14.00" fill="#000000">Subtract</text>
</g>
<!-- node_3 -->
<g id="node4" class="node">
<title>node_3</title>
<ellipse fill="#32a431" stroke="#000000" cx="505.6741" cy="-481.2" rx="64.8486" ry="18"/>
<text text-anchor="middle" x="505.6741" y="-477" font-family="Times,serif" font-size="14.00" fill="#000000">SomeNumber</text>
</g>
<!-- node_3&#45;&gt;node_6 -->
<g id="edge3" class="edge TwoNumbersDep">
<title>node_3-&gt;node_6</title>
<path fill="none" stroke="#000000" d="M472.8215,-465.6046C460.7434,-459.5743 447.0778,-452.3972 435.0205,-445.2 426.3005,-439.9949 407.6624,-427.1178 390.9852,-415.3842"/>
<polygon fill="#000000" stroke="#000000" points="392.694,-412.3063 382.5058,-409.3992 388.6574,-418.0252 392.694,-412.3063"/>
<text text-anchor="middle" x="458.0009" y="-432.6" font-family="Times,serif" font-size="14.00" fill="#000000">Subtract</text>
</g>
<!-- node_7 -->
<g id="node8" class="node">
<title>node_7</title>
<ellipse fill="#e7b416" stroke="#000000" cx="477.6741" cy="-338.4" rx="64.8486" ry="18"/>
<text text-anchor="middle" x="477.6741" y="-334.2" font-family="Times,serif" font-size="14.00" fill="#000000">SomeNumber</text>
</g>
<!-- node_3&#45;&gt;node_7 -->
<g id="edge5" class="edge">
<title>node_3-&gt;node_7</title>
<path fill="none" stroke="#000000" d="M502.1279,-463.1143C497.3572,-438.7841 488.824,-395.2648 483.2056,-366.6109"/>
<polygon fill="#000000" stroke="#000000" points="486.6388,-365.9296 481.2799,-356.7899 479.7696,-367.2765 486.6388,-365.9296"/>
<text text-anchor="middle" x="517.1103" y="-432.6" font-family="Times,serif" font-size="14.00" fill="#000000">Square</text>
</g>
<!-- node_4 -->
<g id="node5" class="node">
<title>node_4</title>
<ellipse fill="#cc3232" stroke="#000000" cx="64.6741" cy="-392.4" rx="64.8486" ry="18"/>
<text text-anchor="middle" x="64.6741" y="-388.2" font-family="Times,serif" font-size="14.00" fill="#000000">SomeNumber</text>
</g>
<!-- node_8 -->
<g id="node9" class="node">
<title>node_8</title>
<ellipse fill="#cc3232" stroke="#000000" cx="115.6741" cy="-284.4" rx="64.8486" ry="18"/>
<text text-anchor="middle" x="115.6741" y="-280.2" font-family="Times,serif" font-size="14.00" fill="#000000">SomeNumber</text>
</g>
<!-- node_4&#45;&gt;node_8 -->
<g id="edge6" class="edge">
<title>node_4-&gt;node_8</title>
<path fill="none" stroke="#000000" d="M73.3255,-374.0793C81.397,-356.9868 93.5448,-331.2619 102.7629,-311.7413"/>
<polygon fill="#000000" stroke="#000000" points="106.0451,-312.9872 107.1504,-302.4502 99.7154,-309.9981 106.0451,-312.9872"/>
<text text-anchor="middle" x="117.1103" y="-334.2" font-family="Times,serif" font-size="14.00" fill="#000000">Square</text>
</g>
<!-- node_9 -->
<g id="node10" class="node">
<title>node_9</title>
<ellipse fill="#e7b416" stroke="#000000" cx="285.6741" cy="-284.4" rx="64.8486" ry="18"/>
<text text-anchor="middle" x="285.6741" y="-280.2" font-family="Times,serif" font-size="14.00" fill="#000000">SomeNumber</text>
</g>
<!-- node_5&#45;&gt;node_9 -->
<g id="edge7" class="edge TwoNumbersDep">
<title>node_5-&gt;node_9</title>
<path fill="none" stroke="#000000" d="M223.8937,-374.566C235.8372,-357.1348 254.1565,-330.3987 267.7487,-310.5614"/>
<polygon fill="#000000" stroke="#000000" points="270.6712,-312.4882 273.4363,-302.2605 264.8967,-308.5315 270.6712,-312.4882"/>
<text text-anchor="middle" x="270.7274" y="-334.2" font-family="Times,serif" font-size="14.00" fill="#000000">Add</text>
</g>
<!-- node_6&#45;&gt;node_9 -->
<g id="edge8" class="edge TwoNumbersDep">
<title>node_6-&gt;node_9</title>
<path fill="none" stroke="#000000" d="M346.6196,-374.566C334.8374,-357.1348 316.7658,-330.3987 303.3573,-310.5614"/>
<polygon fill="#000000" stroke="#000000" points="306.2462,-308.5854 297.7464,-302.2605 300.4468,-312.5055 306.2462,-308.5854"/>
<text text-anchor="middle" x="344.7274" y="-334.2" font-family="Times,serif" font-size="14.00" fill="#000000">Add</text>
</g>
<!-- node_11 -->
<g id="node12" class="node">
<title>node_11</title>
<ellipse fill="#cc3232" stroke="#000000" cx="332.6741" cy="-106.8" rx="64.8486" ry="18"/>
<text text-anchor="middle" x="332.6741" y="-102.6" font-family="Times,serif" font-size="14.00" fill="#000000">SomeNumber</text>
</g>
<!-- node_7&#45;&gt;node_11 -->
<g id="edge12" class="edge TwoNumbersDep">
<title>node_7-&gt;node_11</title>
<path fill="none" stroke="#000000" d="M468.6414,-320.4643C450.5811,-285.2042 407.9355,-204.8905 363.6741,-142.8 361.1965,-139.3244 358.4538,-135.7829 355.6544,-132.3441"/>
<polygon fill="#000000" stroke="#000000" points="358.2378,-129.9783 349.1178,-124.5861 352.8847,-134.4887 358.2378,-129.9783"/>
<text text-anchor="middle" x="452.0009" y="-235.8" font-family="Times,serif" font-size="14.00" fill="#000000">Subtract</text>
</g>
<!-- node_10 -->
<g id="node11" class="node">
<title>node_10</title>
<ellipse fill="#cc3232" stroke="#000000" cx="285.6741" cy="-195.6" rx="64.8486" ry="18"/>
<text text-anchor="middle" x="285.6741" y="-191.4" font-family="Times,serif" font-size="14.00" fill="#000000">SomeNumber</text>
</g>
<!-- node_8&#45;&gt;node_10 -->
<g id="edge10" class="edge TwoNumbersDep">
<title>node_8-&gt;node_10</title>
<path fill="none" stroke="#000000" d="M146.4598,-268.319C174.3811,-253.7342 215.6973,-232.1526 246.0697,-216.2874"/>
<polygon fill="#000000" stroke="#000000" points="247.8743,-219.2936 255.1174,-211.5614 244.6333,-213.0891 247.8743,-219.2936"/>
<text text-anchor="middle" x="240.1776" y="-235.8" font-family="Times,serif" font-size="14.00" fill="#000000">Multiply</text>
</g>
<!-- node_9&#45;&gt;node_10 -->
<g id="edge9" class="edge TwoNumbersDep">
<title>node_9-&gt;node_10</title>
<path fill="none" stroke="#000000" d="M285.6741,-266.0006C285.6741,-253.8949 285.6741,-237.8076 285.6741,-224.0674"/>
<polygon fill="#000000" stroke="#000000" points="289.1742,-223.672 285.6741,-213.672 282.1742,-223.6721 289.1742,-223.672"/>
<text text-anchor="middle" x="310.1776" y="-235.8" font-family="Times,serif" font-size="14.00" fill="#000000">Multiply</text>
</g>
<!-- node_10&#45;&gt;node_11 -->
<g id="edge11" class="edge TwoNumbersDep">
<title>node_10-&gt;node_11</title>
<path fill="none" stroke="#000000" d="M295.1852,-177.63C301.8743,-164.9919 310.9408,-147.862 318.482,-133.614"/>
<polygon fill="#000000" stroke="#000000" points="321.5925,-135.219 323.1771,-124.7433 315.4056,-131.9443 321.5925,-135.219"/>
<text text-anchor="middle" x="336.0009" y="-147" font-family="Times,serif" font-size="14.00" fill="#000000">Subtract</text>
</g>
<!-- node_12 -->
<g id="node13" class="node">
<title>node_12</title>
<ellipse fill="#cc3232" stroke="#000000" cx="332.6741" cy="-18" rx="74.1412" ry="18"/>
<text text-anchor="middle" x="332.6741" y="-13.8" font-family="Times,serif" font-size="14.00" fill="#000000">AnotherNumber</text>
</g>
<!-- node_11&#45;&gt;node_12 -->
<g id="edge13" class="edge">
<title>node_11-&gt;node_12</title>
<path fill="none" stroke="#000000" d="M332.6741,-88.4006C332.6741,-76.2949 332.6741,-60.2076 332.6741,-46.4674"/>
<polygon fill="#000000" stroke="#000000" points="336.1742,-46.072 332.6741,-36.072 329.1742,-46.0721 336.1742,-46.072"/>
<text text-anchor="middle" x="347.4497" y="-58.2" font-family="Times,serif" font-size="14.00" fill="#000000">Cube</text>
</g>
</g>
</svg>