<?xml version="1.0" encoding="UTF-8" standalone="no"?><!DOCTYPE svg PUBLIC "-//W3C//DTD SVG 1.1//EN" "http://www.w3.org/Graphics/SVG/1.1/DTD/svg11.dtd"><!-- Generated by graphviz version 2.40.1 (20161225.0304)
 --><!-- Title: Dag Pages: 1 --><svg xmlns="http://www.w3.org/2000/svg" xmlns:xlink="http://www.w3.org/1999/xlink" width="284pt" height="133pt" viewBox="0.00 0.00 284.35 132.80">
<g id="graph0" class="graph" transform="scale(1 1) rotate(0) translate(4 128.8)">
<title>Dag</title>
<polygon fill="#ffffff" stroke="transparent" points="-4,4 -4,-128.8 280.3482,-128.8 280.3482,4 -4,4"/>
<!-- node_1 -->
<g id="node1" class="node">
<title>node_1</title>
<ellipse fill="none" stroke="#000000" cx="64.6741" cy="-106.8" rx="64.8486" ry="18"/>
<text text-anchor="middle" x="64.6741" y="-102.6" font-family="Times,serif" font-size="14.00" fill="#000000">SomeNumber</text>
</g>
<!-- node_3 -->
<g id="node3" class="node">
<title>node_3</title>
<ellipse fill="none" stroke="#000000" cx="137.6741" cy="-18" rx="64.8486" ry="18"/>
<text text-anchor="middle" x="137.6741" y="-13.8" font-family="Times,serif" font-size="14.00" fill="#000000">SomeNumber</text>
</g>
<!-- node_1&#45;&gt;node_3 -->
<g id="edge1" class="edge TwoNumbersDep">
<title>node_1-&gt;node_3</title>
<path fill="none" stroke="#000000" d="M79.4467,-88.83C90.1037,-75.8665 104.6459,-58.1768 116.5311,-43.7191"/>
<polygon fill="#000000" stroke="#000000" points="119.5258,-45.5877 123.1725,-35.6402 114.1184,-41.1424 119.5258,-45.5877"/>
<text text-anchor="middle" x="133.1776" y="-58.2" font-family="Times,serif" font-size="14.00" fill="#000000">Multiply</text>
</g>
<!-- node_2 -->
<g id="node2" class="node">
<title>node_2</title>
<ellipse fill="none" stroke="#000000" cx="211.6741" cy="-106.8" rx="64.8486" ry="18"/>
<text text-anchor="middle" x="211.6741" y="-102.6" font-family="Times,serif" font-size="14.00" fill="#000000">SomeNumber</text>
</g>
<!-- node_2&#45;&gt;node_3 -->
<g id="edge2" class="edge TwoNumbersDep">
<title>node_2-&gt;node_3</title>
<path fill="none" stroke="#000000" d="M197.0541,-89.256C186.179,-76.2059 171.1721,-58.1977 158.966,-43.5503"/>
<polygon fill="#000000" stroke="#000000" points="161.6077,-41.2531 152.517,-35.8115 156.2301,-45.7344 161.6077,-41.2531"/>
<text text-anchor="middle" x="205.1776" y="-58.2" font-family="Times,serif" font-size="14.00" fill="#000000">Multiply</text>
</g>
</g>
</svg>