<?xml version="1.0" encoding="UTF-8" standalone="no"?><!DOCTYPE svg PUBLIC "-//W3C//DTD SVG 1.1//EN" "http://www.w3.org/Graphics/SVG/1.1/DTD/svg11.dtd"><!-- Generated by graphviz version 2.40.1 (20161225.0304)
 --><!-- Title: G Pages: 1 --><svg xmlns="http://www.w3.org/2000/svg" xmlns:xlink="http://www.w3.org/1999/xlink" width="218pt" height="316pt" viewBox="7.20 7.20 211.20 309.20">
<g id="graph0" class="graph" transform="scale(1 1) rotate(0) translate(11.2 305.2)">
<title>G</title>
<g id="clust1" class="cluster">
<title>cluster_inputs</title>
<path fill="#dddddd" stroke="#dddddd" stroke-width="0" d="M20,-210C20,-210 155,-210 155,-210 161,-210 167,-216 167,-222 167,-222 167,-274 167,-274 167,-280 161,-286 155,-286 155,-286 20,-286 20,-286 14,-286 8,-280 8,-274 8,-274 8,-222 8,-222 8,-216 14,-210 20,-210"/>
<text text-anchor="middle" x="87.5" y="-273" font-family="Helvetica,sans-Serif" font-size="10.00" fill="#222222">These nodes receive data from</text>
<text text-anchor="middle" x="87.5" y="-261" font-family="Helvetica,sans-Serif" font-size="10.00" fill="#222222">outside the graph</text>
</g>
<g id="clust2" class="cluster">
<title>cluster_derived</title>
<path fill="#dddddd" stroke="#dddddd" stroke-width="0" d="M37,-8C37,-8 176,-8 176,-8 182,-8 188,-14 188,-20 188,-20 188,-172 188,-172 188,-178 182,-184 176,-184 176,-184 37,-184 37,-184 31,-184 25,-178 25,-172 25,-172 25,-20 25,-20 25,-14 31,-8 37,-8"/>
<text text-anchor="middle" x="106.5" y="-27" font-family="Helvetica,sans-Serif" font-size="10.00" fill="#222222">These nodes derive their values</text>
<text text-anchor="middle" x="106.5" y="-15" font-family="Helvetica,sans-Serif" font-size="10.00" fill="#222222">from other nodes</text>
</g>
<!-- i0 -->
<g id="node1" class="node">
<title>i0</title>
<path fill="#eeeeee" stroke="#000000" d="M44.2358,-244C44.2358,-244 25.7642,-244 25.7642,-244 21.7642,-244 17.7642,-240 17.7642,-236 17.7642,-236 17.7642,-228 17.7642,-228 17.7642,-224 21.7642,-220 25.7642,-220 25.7642,-220 44.2358,-220 44.2358,-220 48.2358,-220 52.2358,-224 52.2358,-228 52.2358,-228 52.2358,-236 52.2358,-236 52.2358,-240 48.2358,-244 44.2358,-244"/>
<text text-anchor="middle" x="35" y="-229" font-family="Helvetica,sans-Serif" font-size="10.00" fill="#111111">Input</text>
</g>
<!-- root -->
<g id="node9" class="node">
<title>root</title>
<path fill="#eeeeee" stroke="#000000" d="M137.6162,-74C137.6162,-74 120.3838,-74 120.3838,-74 116.3838,-74 112.3838,-70 112.3838,-66 112.3838,-66 112.3838,-58 112.3838,-58 112.3838,-54 116.3838,-50 120.3838,-50 120.3838,-50 137.6162,-50 137.6162,-50 141.6162,-50 145.6162,-54 145.6162,-58 145.6162,-58 145.6162,-66 145.6162,-66 145.6162,-70 141.6162,-74 137.6162,-74"/>
<text text-anchor="middle" x="129" y="-59" font-family="Helvetica,sans-Serif" font-size="10.00" fill="#111111">Root</text>
</g>
<!-- i0&#45;&gt;root -->
<g id="i0r" class="edge">
<title>i0-&gt;root</title>
<path fill="none" stroke="#333333" d="M34.0703,-219.9066C33.548,-212.0922 33,-201.701 33,-192.5 33,-192.5 33,-192.5 33,-91.5 33,-76.4548 76.6277,-68.2881 105.0614,-64.5632"/>
<polygon fill="#333333" stroke="#333333" points="105.6324,-66.9613 112.2781,-63.6693 105.03,-62.0985 105.6324,-66.9613"/>
</g>
<!-- i1 -->
<g id="node2" class="node">
<title>i1</title>
<path fill="#eeeeee" stroke="#000000" d="M79.2358,-244C79.2358,-244 60.7642,-244 60.7642,-244 56.7642,-244 52.7642,-240 52.7642,-236 52.7642,-236 52.7642,-228 52.7642,-228 52.7642,-224 56.7642,-220 60.7642,-220 60.7642,-220 79.2358,-220 79.2358,-220 83.2358,-220 87.2358,-224 87.2358,-228 87.2358,-228 87.2358,-236 87.2358,-236 87.2358,-240 83.2358,-244 79.2358,-244"/>
<text text-anchor="middle" x="70" y="-229" font-family="Helvetica,sans-Serif" font-size="10.00" fill="#111111">Input</text>
</g>
<!-- d2 -->
<g id="node7" class="node">
<title>d2</title>
<path fill="#eeeeee" stroke="#000000" d="M73.4461,-124C73.4461,-124 42.5539,-124 42.5539,-124 38.5539,-124 34.5539,-120 34.5539,-116 34.5539,-116 34.5539,-108 34.5539,-108 34.5539,-104 38.5539,-100 42.5539,-100 42.5539,-100 73.4461,-100 73.4461,-100 77.4461,-100 81.4461,-104 81.4461,-108 81.4461,-108 81.4461,-116 81.4461,-116 81.4461,-120 77.4461,-124 73.4461,-124"/>
<text text-anchor="middle" x="58" y="-109" font-family="Helvetica,sans-Serif" font-size="10.00" fill="#111111">Derived</text>
</g>
<!-- i1&#45;&gt;d2 -->
<g id="i1d2" class="edge">
<title>i1-&gt;d2</title>
<path fill="none" stroke="#333333" d="M67.2108,-219.9704C65.6439,-212.1814 64,-201.7946 64,-192.5 64,-192.5 64,-192.5 64,-141.5 64,-138.1763 63.6297,-134.6836 63.0732,-131.3108"/>
<polygon fill="#333333" stroke="#333333" points="65.4287,-130.5999 61.6286,-124.2311 60.6276,-131.5796 65.4287,-130.5999"/>
</g>
<!-- i2 -->
<g id="node3" class="node">
<title>i2</title>
<path fill="#eeeeee" stroke="#000000" d="M114.2358,-244C114.2358,-244 95.7642,-244 95.7642,-244 91.7642,-244 87.7642,-240 87.7642,-236 87.7642,-236 87.7642,-228 87.7642,-228 87.7642,-224 91.7642,-220 95.7642,-220 95.7642,-220 114.2358,-220 114.2358,-220 118.2358,-220 122.2358,-224 122.2358,-228 122.2358,-228 122.2358,-236 122.2358,-236 122.2358,-240 118.2358,-244 114.2358,-244"/>
<text text-anchor="middle" x="105" y="-229" font-family="Helvetica,sans-Serif" font-size="10.00" fill="#111111">Input</text>
</g>
<!-- d0 -->
<g id="node5" class="node">
<title>d0</title>
<path fill="#eeeeee" stroke="#000000" d="M120.4461,-124C120.4461,-124 89.5539,-124 89.5539,-124 85.5539,-124 81.5539,-120 81.5539,-116 81.5539,-116 81.5539,-108 81.5539,-108 81.5539,-104 85.5539,-100 89.5539,-100 89.5539,-100 120.4461,-100 120.4461,-100 124.4461,-100 128.4461,-104 128.4461,-108 128.4461,-108 128.4461,-116 128.4461,-116 128.4461,-120 124.4461,-124 120.4461,-124"/>
<text text-anchor="middle" x="105" y="-109" font-family="Helvetica,sans-Serif" font-size="10.00" fill="#111111">Derived</text>
</g>
<!-- i2&#45;&gt;d0 -->
<g id="i2d0" class="edge">
<title>i2-&gt;d0</title>
<path fill="none" stroke="#333333" d="M105,-219.8986C105,-212.081 105,-201.6892 105,-192.5 105,-192.5 105,-192.5 105,-141.5 105,-138.1838 105,-134.6579 105,-131.2406"/>
<polygon fill="#333333" stroke="#333333" points="107.4501,-131.0564 105,-124.0564 102.5501,-131.0564 107.4501,-131.0564"/>
</g>
<!-- i3 -->
<g id="node4" class="node">
<title>i3</title>
<path fill="#eeeeee" stroke="#000000" d="M149.2358,-244C149.2358,-244 130.7642,-244 130.7642,-244 126.7642,-244 122.7642,-240 122.7642,-236 122.7642,-236 122.7642,-228 122.7642,-228 122.7642,-224 126.7642,-220 130.7642,-220 130.7642,-220 149.2358,-220 149.2358,-220 153.2358,-220 157.2358,-224 157.2358,-228 157.2358,-228 157.2358,-236 157.2358,-236 157.2358,-240 153.2358,-244 149.2358,-244"/>
<text text-anchor="middle" x="140" y="-229" font-family="Helvetica,sans-Serif" font-size="10.00" fill="#111111">Input</text>
</g>
<!-- d1 -->
<g id="node6" class="node">
<title>d1</title>
<path fill="#eeeeee" stroke="#000000" d="M167.4461,-174C167.4461,-174 136.5539,-174 136.5539,-174 132.5539,-174 128.5539,-170 128.5539,-166 128.5539,-166 128.5539,-158 128.5539,-158 128.5539,-154 132.5539,-150 136.5539,-150 136.5539,-150 167.4461,-150 167.4461,-150 171.4461,-150 175.4461,-154 175.4461,-158 175.4461,-158 175.4461,-166 175.4461,-166 175.4461,-170 171.4461,-174 167.4461,-174"/>
<text text-anchor="middle" x="152" y="-159" font-family="Helvetica,sans-Serif" font-size="10.00" fill="#111111">Derived</text>
</g>
<!-- i3&#45;&gt;d1 -->
<g id="i3d1" class="edge">
<title>i3-&gt;d1</title>
<path fill="none" stroke="#333333" d="M142.0902,-219.8069C143.9142,-209.1672 146.592,-193.5469 148.7043,-181.2251"/>
<polygon fill="#333333" stroke="#333333" points="151.1657,-181.3667 149.9337,-174.0533 146.3361,-180.5387 151.1657,-181.3667"/>
</g>
<!-- i3&#45;&gt;root -->
<g id="i3r" class="edge">
<title>i3-&gt;root</title>
<path fill="none" stroke="#333333" d="M157.1957,-223.4356C168.0371,-216.696 180,-206.1636 180,-192.5 180,-192.5 180,-192.5 180,-91.5 180,-77.7376 165.9124,-70.2928 152.5453,-66.3264"/>
<polygon fill="#333333" stroke="#333333" points="153.0899,-63.9367 145.6993,-64.5543 151.862,-68.6804 153.0899,-63.9367"/>
</g>
<!-- d0&#45;&gt;root -->
<g id="d0r" class="edge">
<title>d0-&gt;root</title>
<path fill="none" stroke="#333333" d="M110.8097,-99.8964C113.5401,-94.2082 116.8592,-87.2934 119.911,-80.9355"/>
<polygon fill="#333333" stroke="#333333" points="122.2566,-81.7104 123.077,-74.3395 117.8391,-79.59 122.2566,-81.7104"/>
</g>
<!-- d3 -->
<g id="node8" class="node">
<title>d3</title>
<path fill="#eeeeee" stroke="#000000" d="M167.4461,-124C167.4461,-124 136.5539,-124 136.5539,-124 132.5539,-124 128.5539,-120 128.5539,-116 128.5539,-116 128.5539,-108 128.5539,-108 128.5539,-104 132.5539,-100 136.5539,-100 136.5539,-100 167.4461,-100 167.4461,-100 171.4461,-100 175.4461,-104 175.4461,-108 175.4461,-108 175.4461,-116 175.4461,-116 175.4461,-120 171.4461,-124 167.4461,-124"/>
<text text-anchor="middle" x="152" y="-109" font-family="Helvetica,sans-Serif" font-size="10.00" fill="#111111">Derived</text>
</g>
<!-- d1&#45;&gt;d3 -->
<g id="d1d3" class="edge">
<title>d1-&gt;d3</title>
<path fill="none" stroke="#333333" d="M152,-149.8964C152,-144.3292 152,-137.5871 152,-131.3421"/>
<polygon fill="#333333" stroke="#333333" points="154.4501,-131.3395 152,-124.3395 149.5501,-131.3395 154.4501,-131.3395"/>
</g>
<!-- d1&#45;&gt;root -->
<g id="d1r" class="edge">
<title>d1-&gt;root</title>
<path fill="none" stroke="#333333" d="M168.5361,-149.966C173.1853,-145.1831 177,-139.2133 177,-132.5 177,-132.5 177,-132.5 177,-91.5 177,-78.9081 164.8619,-71.5204 152.7935,-67.2872"/>
<polygon fill="#333333" stroke="#333333" points="153.1986,-64.8491 145.7881,-65.1437 151.7649,-69.5346 153.1986,-64.8491"/>
</g>
<!-- d2&#45;&gt;root -->
<g id="d2r" class="edge">
<title>d2-&gt;root</title>
<path fill="none" stroke="#333333" d="M75.1871,-99.8964C84.4315,-93.3863 95.9573,-85.2695 105.9679,-78.2198"/>
<polygon fill="#333333" stroke="#333333" points="107.6586,-80.0258 111.9712,-73.9921 104.8372,-76.0195 107.6586,-80.0258"/>
</g>
<!-- d3&#45;&gt;root -->
<g id="d3r" class="edge">
<title>d3-&gt;root</title>
<path fill="none" stroke="#333333" d="M146.4323,-99.8964C143.8158,-94.2082 140.635,-87.2934 137.7103,-80.9355"/>
<polygon fill="#333333" stroke="#333333" points="139.8274,-79.6751 134.6762,-74.3395 135.3758,-81.7228 139.8274,-79.6751"/>
</g>
</g>
</svg>