<?xml version="1.0" encoding="UTF-8" standalone="no"?><!DOCTYPE svg PUBLIC "-//W3C//DTD SVG 1.1//EN" "http://www.w3.org/Graphics/SVG/1.1/DTD/svg11.dtd"><!-- Generated by graphviz version 2.40.1 (20161225.0304)
 --><!-- Title: G Pages: 1 --><svg xmlns="http://www.w3.org/2000/svg" xmlns:xlink="http://www.w3.org/1999/xlink" width="672pt" height="222pt" viewBox="0.00 0.00 671.85 221.60">
<g id="graph0" class="graph" transform="scale(1 1) rotate(0) translate(4 217.6)">
<title>G</title>
<polygon fill="#ffffff" stroke="transparent" points="-4,4 -4,-217.6 667.8464,-217.6 667.8464,4 -4,4"/>
<!-- 0 -->
<g id="node1" class="node">
<title>0</title>
<ellipse fill="none" stroke="#000000" cx="160.0034" cy="-195.6" rx="52.7681" ry="18"/>
<text text-anchor="middle" x="160.0034" y="-191.4" font-family="Times,serif" font-size="14.00" fill="#000000">Comments</text>
</g>
<!-- 3 -->
<g id="node4" class="node">
<title>3</title>
<ellipse fill="none" stroke="#000000" cx="84.0034" cy="-106.8" rx="84.0068" ry="18"/>
<text text-anchor="middle" x="84.0034" y="-102.6" font-family="Times,serif" font-size="14.00" fill="#000000">CommentsToPosts</text>
</g>
<!-- 0&#45;&gt;3 -->
<g id="edge1" class="edge">
<title>0-&gt;3</title>
<path fill="none" stroke="#000000" d="M121.134,-183.2872C109.6916,-177.8016 98.2789,-170.1294 90.915,-159.6 85.9429,-152.4904 83.6873,-143.4981 82.8248,-134.9587"/>
<polygon fill="#000000" stroke="#000000" points="86.3194,-134.7572 82.3746,-124.9241 79.3264,-135.071 86.3194,-134.7572"/>
<text text-anchor="middle" x="155.5476" y="-147" font-family="Times,serif" font-size="14.00" fill="#000000">TrackCommentPostIds</text>
</g>
<!-- 4 -->
<g id="node5" class="node">
<title>4</title>
<ellipse fill="none" stroke="#000000" cx="307.0034" cy="-18" rx="77.5859" ry="18"/>
<text text-anchor="middle" x="307.0034" y="-13.8" font-family="Times,serif" font-size="14.00" fill="#000000">PostScoresQuery</text>
</g>
<!-- 0&#45;&gt;4 -->
<g id="edge2" class="edge">
<title>0-&gt;4</title>
<path fill="none" stroke="#000000" d="M193.1218,-181.3217C202.9026,-175.7525 212.8834,-168.5274 220.0034,-159.6 240.6465,-133.7168 226.5684,-117.4493 243.1604,-88.8 253.0066,-71.7987 267.4481,-55.3417 280.1065,-42.5795"/>
<polygon fill="#000000" stroke="#000000" points="282.6187,-45.018 287.3053,-35.5161 277.7161,-40.0215 282.6187,-45.018"/>
<text text-anchor="middle" x="311.4249" y="-102.6" font-family="Times,serif" font-size="14.00" fill="#000000">UpdatePostScoresQuery</text>
</g>
<!-- 1 -->
<g id="node2" class="node">
<title>1</title>
<ellipse fill="none" stroke="#000000" cx="420.0034" cy="-106.8" rx="31.3564" ry="18"/>
<text text-anchor="middle" x="420.0034" y="-102.6" font-family="Times,serif" font-size="14.00" fill="#000000">Posts</text>
</g>
<!-- 1&#45;&gt;4 -->
<g id="edge3" class="edge">
<title>1-&gt;4</title>
<path fill="none" stroke="#000000" d="M401.3438,-92.1365C383.9337,-78.455 357.652,-57.8017 337.2464,-41.7662"/>
<polygon fill="#000000" stroke="#000000" points="339.2107,-38.8584 329.1853,-35.4315 334.8855,-44.3623 339.2107,-38.8584"/>
<text text-anchor="middle" x="441.4249" y="-58.2" font-family="Times,serif" font-size="14.00" fill="#000000">UpdatePostScoresQuery</text>
</g>
<!-- 2 -->
<g id="node3" class="node">
<title>2</title>
<ellipse fill="none" stroke="#000000" cx="541.0034" cy="-106.8" rx="32.4808" ry="18"/>
<text text-anchor="middle" x="541.0034" y="-102.6" font-family="Times,serif" font-size="14.00" fill="#000000">Likes</text>
</g>
<!-- 2&#45;&gt;4 -->
<g id="edge4" class="edge">
<title>2-&gt;4</title>
<path fill="none" stroke="#000000" d="M536.3722,-88.8604C532.393,-77.114 525.4407,-62.4295 514.0034,-54 494.437,-39.5791 439.1433,-30.4165 390.6233,-24.9456"/>
<polygon fill="#000000" stroke="#000000" points="390.7073,-21.4342 380.3878,-23.8336 389.9513,-28.3932 390.7073,-21.4342"/>
<text text-anchor="middle" x="595.4249" y="-58.2" font-family="Times,serif" font-size="14.00" fill="#000000">UpdatePostScoresQuery</text>
</g>
<!-- 3&#45;&gt;4 -->
<g id="edge5" class="edge">
<title>3-&gt;4</title>
<path fill="none" stroke="#000000" d="M78.1831,-88.6261C75.7976,-77.3792 75.1931,-63.351 83.1604,-54 92.5414,-42.9897 164.9524,-32.7542 224.9163,-26.0338"/>
<polygon fill="#000000" stroke="#000000" points="225.6268,-29.4769 235.1837,-24.9033 224.8607,-22.5189 225.6268,-29.4769"/>
<text text-anchor="middle" x="152.4249" y="-58.2" font-family="Times,serif" font-size="14.00" fill="#000000">UpdatePostScoresQuery</text>
</g>
</g>
</svg>