<?xml version="1.0" encoding="UTF-8" standalone="no"?><!DOCTYPE svg PUBLIC "-//W3C//DTD SVG 1.1//EN" "http://www.w3.org/Graphics/SVG/1.1/DTD/svg11.dtd"><!-- Generated by graphviz version 2.40.1 (20161225.0304)
 --><!-- Title: G Pages: 1 --><svg xmlns="http://www.w3.org/2000/svg" xmlns:xlink="http://www.w3.org/1999/xlink" width="345pt" height="310pt" viewBox="0.00 0.00 345.42 310.40">
<g id="graph0" class="graph" transform="scale(1 1) rotate(0) translate(4 306.4)">
<title>G</title>
<polygon fill="#ffffff" stroke="transparent" points="-4,4 -4,-306.4 341.424,-306.4 341.424,4 -4,4"/>
<!-- 0 -->
<g id="node1" class="node">
<title>0</title>
<ellipse fill="none" stroke="#000000" cx="245.783" cy="-284.4" rx="58.4473" ry="18"/>
<text text-anchor="middle" x="245.783" y="-280.2" font-family="Times,serif" font-size="14.00" fill="#000000">OpenOrders</text>
</g>
<!-- 1 -->
<g id="node2" class="node">
<title>1</title>
<ellipse fill="none" stroke="#000000" cx="191.783" cy="-195.6" rx="50.4149" ry="18"/>
<text text-anchor="middle" x="191.783" y="-191.4" font-family="Times,serif" font-size="14.00" fill="#000000">RiskLimit</text>
</g>
<!-- 0&#45;&gt;1 -->
<g id="edge1" class="edge">
<title>0-&gt;1</title>
<path fill="none" stroke="#000000" d="M213.6055,-269.2789C205.5506,-263.8709 197.8859,-256.9463 193.2304,-248.4 189.2206,-241.0392 187.8898,-232.2035 187.836,-223.8844"/>
<polygon fill="#000000" stroke="#000000" points="191.3377,-223.9367 188.3453,-213.7733 184.3465,-223.5845 191.3377,-223.9367"/>
<text text-anchor="middle" x="239.0593" y="-235.8" font-family="Times,serif" font-size="14.00" fill="#000000">CheckRiskLimit</text>
</g>
<!-- 3 -->
<g id="node4" class="node">
<title>3</title>
<ellipse fill="none" stroke="#000000" cx="231.783" cy="-18" rx="66.0531" ry="18"/>
<text text-anchor="middle" x="231.783" y="-13.8" font-family="Times,serif" font-size="14.00" fill="#000000">DecisionNode</text>
</g>
<!-- 0&#45;&gt;3 -->
<g id="edge3" class="edge">
<title>0-&gt;3</title>
<path fill="none" stroke="#000000" d="M270.5312,-267.9406C276.6662,-262.5114 282.4381,-255.9105 285.783,-248.4 298.4956,-219.8554 370.2504,-380.7069 275.783,-88.8 270.6057,-72.8023 261.0645,-56.7421 252.1871,-43.9714"/>
<polygon fill="#000000" stroke="#000000" points="254.9023,-41.7531 246.2089,-35.6969 249.2282,-45.8525 254.9023,-41.7531"/>
<text text-anchor="middle" x="317.6035" y="-147" font-family="Times,serif" font-size="14.00" fill="#000000">Decide</text>
</g>
<!-- 2 -->
<g id="node3" class="node">
<title>2</title>
<ellipse fill="none" stroke="#000000" cx="95.783" cy="-106.8" rx="95.5664" ry="18"/>
<text text-anchor="middle" x="95.783" y="-102.6" font-family="Times,serif" font-size="14.00" fill="#000000">ExpensiveCalculation</text>
</g>
<!-- 1&#45;&gt;2 -->
<g id="edge2" class="edge">
<title>1-&gt;2</title>
<path fill="none" stroke="#000000" d="M149.8889,-185.6789C125.7874,-179.0302 98.9103,-169.6729 91.832,-159.6 86.8722,-152.542 86.0797,-143.5634 87.0656,-135.0207"/>
<polygon fill="#000000" stroke="#000000" points="90.5459,-135.4551 88.9897,-124.9752 83.6709,-134.1382 90.5459,-135.4551"/>
<text text-anchor="middle" x="155.7585" y="-147" font-family="Times,serif" font-size="14.00" fill="#000000">CalculateNextNumber</text>
</g>
<!-- 1&#45;&gt;3 -->
<g id="edge4" class="edge">
<title>1-&gt;3</title>
<path fill="none" stroke="#000000" d="M207.0299,-178.3731C211.2065,-172.7481 215.271,-166.2331 217.783,-159.6 231.9022,-122.3173 233.7836,-75.768 233.2455,-46.4519"/>
<polygon fill="#000000" stroke="#000000" points="236.734,-46.0079 232.9413,-36.1152 229.7371,-46.2139 236.734,-46.0079"/>
<text text-anchor="middle" x="251.6035" y="-102.6" font-family="Times,serif" font-size="14.00" fill="#000000">Decide</text>
</g>
<!-- 2&#45;&gt;3 -->
<g id="edge5" class="edge">
<title>2-&gt;3</title>
<path fill="none" stroke="#000000" d="M122.328,-89.4677C143.8511,-75.4143 174.3341,-55.5107 197.6672,-40.2756"/>
<polygon fill="#000000" stroke="#000000" points="199.7664,-43.085 206.2261,-34.6871 195.9394,-37.2237 199.7664,-43.085"/>
<text text-anchor="middle" x="195.6035" y="-58.2" font-family="Times,serif" font-size="14.00" fill="#000000">Decide</text>
</g>
</g>
</svg>